3.0Hz3min_grf.mot
version=1
nRows=20
nColumns 19
inDegrees=yes
endheader
time	1_ground_force_vx	1_ground_force_vy	1_ground_force_vz	1_ground_force_px	1_ground_force_py	1_ground_force_pz	1_ground_torque_x	1_ground_torque_y	1_ground_torque_z	2_ground_force_vx	2_ground_force_vy	2_ground_force_vz	2_ground_force_px	2_ground_force_py	2_ground_force_pz	2_ground_torque_x	2_ground_torque_y	2_ground_torque_z
            0.005000	            0.734386	           -1.803498	            0.219730	           -0.181384	            0.006298	           -0.420630	           -0.253021	            0.130429	           -0.136656	            0.007023	           -2.023288	           -0.664221	           -0.201149	            0.005813	           -0.713242	           -0.000255	            0.066303	           -0.037464
            0.005500	            0.460059	           -1.444396	            0.542949	           -0.181384	            0.006298	           -0.420630	           -0.229373	            0.102508	           -0.129777	            0.000274	           -0.180968	           -0.892291	           -0.201149	            0.005813	           -0.713242	           -0.019034	            0.075352	            0.056828
            0.006000	            0.505624	           -0.542862	            0.500845	           -0.181384	            0.006298	           -0.420630	           -0.077752	            0.010042	           -0.109829	            0.098503	           -1.468664	           -1.178499	           -0.201149	            0.005813	           -0.713242	           -0.037818	            0.066100	           -0.018598
            0.006500	            0.139680	           -1.805776	            0.725624	           -0.181384	            0.006298	           -0.420630	           -0.068155	           -0.072985	           -0.200995	            0.472781	           -1.284334	           -0.849505	           -0.201149	            0.005813	           -0.713242	           -0.018990	            0.056648	            0.000210
            0.007000	           -0.365082	           -1.624821	            0.544225	           -0.181384	            0.006298	           -0.420630	           -0.079087	           -0.082791	           -0.147325	            0.707716	           -1.467804	           -0.803333	           -0.201149	            0.005813	           -0.713242	           -0.000195	            0.047465	           -0.056382
            0.007500	           -0.044831	           -1.803845	            0.267520	           -0.181384	            0.006298	           -0.420630	           -0.198629	            0.019001	           -0.132903	            0.612851	           -1.101185	           -0.426554	           -0.201149	            0.005813	           -0.713242	            0.018676	            0.019309	           -0.094192
            0.008000	            0.229137	           -1.441491	           -0.144320	           -0.181384	            0.006298	           -0.420630	           -0.030759	            0.175719	            0.010655	            0.468252	            0.003700	           -0.563336	           -0.201149	            0.005813	           -0.713242	           -0.112985	            0.075215	            0.000318
            0.008500	            0.504048	           -1.260976	           -0.190086	           -0.181384	            0.006298	           -0.420630	           -0.047995	            0.204135	           -0.109045	            0.375238	           -0.180954	           -0.517026	           -0.201149	            0.005813	           -0.713242	           -0.112925	            0.056376	           -0.018600
            0.009000	            0.276427	           -1.263773	            0.452466	           -0.181384	            0.006298	           -0.420630	           -0.094086	            0.028338	           -0.100660	            0.002288	           -0.733581	           -0.847334	           -0.201149	            0.005813	           -0.713242	            0.037358	            0.056919	           -0.018664
            0.009500	            0.459847	           -0.903402	            0.499412	           -0.181384	            0.006298	           -0.420630	           -0.152413	           -0.064263	           -0.036712	           -0.278270	           -0.917740	           -1.129440	           -0.201149	            0.005813	           -0.713242	           -0.112984	            0.066031	           -0.075117
            0.010000	            0.139239	           -1.264389	            0.590375	           -0.181384	            0.006298	           -0.420630	            0.050139	           -0.091695	           -0.144993	            0.236558	           -0.732902	           -0.800506	           -0.201149	            0.005813	           -0.713242	            0.056313	            0.018907	            0.056594
            0.010500	           -0.089032	           -1.446272	            0.957018	           -0.181384	            0.006298	           -0.420630	           -0.077774	           -0.036836	           -0.041419	            0.472158	           -1.100520	           -0.754991	           -0.201149	            0.005813	           -0.713242	           -0.037657	            0.028088	            0.037818
            0.011000	            0.139368	           -0.723985	            0.684406	           -0.181384	            0.006298	           -0.420630	           -0.141729	            0.065167	           -0.087469	            0.515746	           -0.180112	           -0.610942	           -0.201149	            0.005813	           -0.713242	           -0.131702	            0.056241	            0.000258
            0.011500	            0.092468	           -0.541959	            0.272589	           -0.181384	            0.006298	           -0.420630	           -0.011775	            0.148589	           -0.145790	            0.516370	           -0.363925	           -0.705455	           -0.201149	            0.005813	           -0.713242	           -0.037699	            0.037608	            0.019001
            0.012000	            0.091979	           -0.360907	            0.089938	           -0.181384	            0.006298	           -0.420630	           -0.079161	            0.167056	           -0.145550	            0.146990	           -1.839302	           -0.475911	           -0.201149	            0.005813	           -0.713242	            0.074928	            0.057055	           -0.018680
            0.012500	            0.276037	           -1.623518	            0.267496	           -0.181384	            0.006298	           -0.420630	           -0.235748	            0.055228	            0.087801	            0.049988	           -0.919066	           -0.425658	           -0.201149	            0.005813	           -0.713242	           -0.037811	            0.075217	            0.075687
            0.013000	            0.413890	           -0.903215	            0.453670	           -0.181384	            0.006298	           -0.420630	           -0.132020	           -0.045231	           -0.170223	            0.191702	           -1.285516	           -0.802457	           -0.201149	            0.005813	           -0.713242	            0.037238	            0.094595	            0.019172
            0.013500	            0.323117	           -2.166272	            0.723623	           -0.181384	            0.006298	           -0.420630	           -0.067669	           -0.082547	           -0.099215	            0.427302	           -1.653135	           -0.756943	           -0.201149	            0.005813	           -0.713242	           -0.018803	            0.009250	            0.037742
            0.014000	            0.323474	           -1.626261	            0.909365	           -0.181384	            0.006298	           -0.420630	           -0.094711	           -0.036167	           -0.136564	            0.474069	           -1.652296	           -0.944675	           -0.201149	            0.005813	           -0.713242	           -0.093969	            0.009181	           -0.018777
            0.014500	            0.139467	           -1.264782	            0.682087	           -0.181384	            0.006298	           -0.420630	           -0.047622	            0.111563	           -0.125081	            0.190414	           -0.917554	           -0.707287	           -0.201149	            0.005813	           -0.713242	           -0.075200	            0.009383	           -0.056485
